<svg width="50" height="50" viewBox="0 0 50 50" fill="none" xmlns="http://www.w3.org/2000/svg">
<g id="telegram-svgrepo-com 1" clip-path="url(#clip0_35_248)">
<g id="Group">
<g id="Group_2">
<path id="Vector" d="M47.9127 14.9846C46.5751 11.9287 44.667 9.20742 42.2415 6.89678C41.9283 6.59844 41.4329 6.61035 41.1346 6.92363C40.8363 7.23672 40.8483 7.73223 41.1614 8.03037C45.8513 12.4982 48.4342 18.5249 48.4342 25C48.4342 37.9217 37.9217 48.4343 24.9999 48.4343C12.0781 48.4343 1.56572 37.9217 1.56572 25C1.56572 12.0783 12.0783 1.56572 25 1.56572C29.7203 1.56572 34.2705 2.96279 38.1584 5.60566C38.5159 5.84873 39.0028 5.75586 39.246 5.39844C39.4891 5.04082 39.3962 4.55391 39.0387 4.31084C34.89 1.49072 30.0356 0 25 0C18.3223 0 12.0442 2.60039 7.32236 7.32236C2.60049 12.0442 0 18.3223 0 25C0 31.6777 2.60049 37.9558 7.32236 42.6776C12.0442 47.3996 18.3223 50 25 50C31.6777 50 37.9558 47.3996 42.6776 42.6776C47.3995 37.9558 50 31.6777 50 25C50 21.5184 49.2977 18.1486 47.9127 14.9846Z" fill="black"/>
</g>
</g>
<g id="Group_3">
<g id="Group_4">
<path id="Vector_2" d="M36.3607 10.6006L21.3044 17.6095C20.9124 17.7919 20.7426 18.2577 20.9251 18.6497C21.1076 19.0417 21.5734 19.2117 21.9652 19.0291L31.2529 14.7055L26.7375 18.3609L16.3755 26.7491L10.7079 24.2695L18.6499 20.5724C19.0419 20.3898 19.2117 19.9241 19.0292 19.5322C18.8468 19.1402 18.3809 18.9701 17.9892 19.1528L9.44036 23.1324C8.98587 23.344 8.69896 23.8068 8.71048 24.3077C8.72171 24.798 9.018 25.2392 9.46712 25.4357L15.7954 28.2042L17.6489 39.3246C17.7629 40.0122 18.694 40.208 19.0759 39.6249L24.3333 31.6004L34.2758 36.2403C35.0724 36.6123 36.0203 36.0438 36.0717 35.1694L37.4725 11.356C37.474 11.3339 37.4739 11.3113 37.4734 11.2891C37.4577 10.7349 36.8624 10.3686 36.3607 10.6006ZM18.5565 35.247L17.3451 27.9786L29.6859 17.9885L20.2408 28.5784C20.1558 28.6737 20.0927 28.7937 20.0634 28.9182L18.5565 35.247ZM20.2197 35.0224L21.3642 30.215L22.8997 30.9316L20.2197 35.0224ZM23.7667 29.6083L22.1098 28.8352L30.2611 19.6959L29.0821 21.4955L23.7667 29.6083ZM34.5349 34.6335L25.2003 30.2774L35.7371 14.1949L34.5349 34.6335Z" fill="black"/>
</g>
</g>
</g>
<defs>
<clipPath id="clip0_35_248">
<rect width="50" height="50" fill="white"/>
</clipPath>
</defs>
</svg>
