<svg width="50" height="50" viewBox="0 0 50 50" fill="none" xmlns="http://www.w3.org/2000/svg">
<g id="whatsapp-svgrepo-com 1" clip-path="url(#clip0_35_265)">
<g id="Group">
<g id="Group_2">
<path id="Vector" d="M42.6776 7.32236C37.9558 2.60049 31.6777 0 25 0C18.3223 0 12.0442 2.60049 7.32236 7.32236C2.60049 12.0442 0 18.3223 0 25C0 30.0373 1.48555 34.8756 4.30059 39.0217L0.0632813 48.9087C-0.214355 49.5564 0.480469 50.2283 1.11943 49.9239L10.5768 45.4205C14.8104 48.4182 19.7869 50 25 50C31.6777 50 37.9558 47.3996 42.6776 42.6776C47.3996 37.9559 50 31.6777 50 25C50 18.3223 47.3996 12.0442 42.6776 7.32236ZM25 48.4343C19.9655 48.4343 15.167 46.8608 11.123 43.8839C10.893 43.7145 10.5803 43.6848 10.3224 43.8076L2.31992 47.6182L5.91035 39.2408C6.01738 38.991 5.9873 38.7036 5.83066 38.4815C3.04053 34.5215 1.56572 29.8598 1.56572 25C1.56572 12.0783 12.0783 1.56572 25 1.56572C37.9217 1.56572 48.4343 12.0783 48.4343 25C48.4343 37.9217 37.9217 48.4343 25 48.4343Z" fill="black"/>
</g>
</g>
<g id="Group_3">
<g id="Group_4">
<path id="Vector_2" d="M38.7744 9.38135C38.4504 9.09512 37.9556 9.12617 37.6695 9.45029C37.3833 9.77441 37.4143 10.2691 37.7383 10.5553C41.8822 14.2126 44.2589 19.4774 44.2589 24.9999C44.2589 35.6193 35.6194 44.2588 25 44.2588C14.3806 44.2588 5.74114 35.6193 5.74114 24.9999C5.74114 14.3805 14.3806 5.74102 25 5.74102C28.3861 5.74102 31.7156 6.63184 34.6289 8.31709C35.0032 8.53369 35.4822 8.40566 35.6987 8.03135C35.9152 7.65703 35.7873 7.17822 35.4131 6.96162C32.2616 5.13887 28.6609 4.17529 25 4.17529C13.5172 4.17529 4.17542 13.5171 4.17542 24.9999C4.17542 36.4827 13.5172 45.8245 25 45.8245C36.4828 45.8245 45.8246 36.4827 45.8246 24.9999C45.8246 19.0284 43.2549 13.3357 38.7744 9.38135Z" fill="black"/>
</g>
</g>
<g id="Group_5">
<g id="Group_6">
<path id="Vector_3" d="M38.2958 33.4878L37.5449 29.4207C37.4868 29.1058 37.2426 28.858 36.9286 28.7951L31.0239 27.6143C30.7672 27.5633 30.5018 27.6435 30.3167 27.8285L27.8923 30.2531C23.806 28.429 21.548 26.1663 19.559 21.905L21.9761 19.4879C22.1612 19.3029 22.2415 19.0375 22.1902 18.7808L21.0093 12.8759C20.9465 12.5618 20.6987 12.3177 20.3837 12.2595L16.3166 11.5086C16.2121 11.4893 16.1047 11.4915 16.0011 11.5151C14.9368 11.757 13.9657 12.2934 13.1929 13.0662C11.8547 14.4044 11.3436 16.3596 11.715 18.7202C12.0533 20.8716 12.7359 23.2115 13.6366 25.3088C13.8074 25.7062 14.2678 25.89 14.665 25.7192C15.0622 25.5485 15.2459 25.0882 15.0753 24.6909C14.2244 22.71 13.5804 20.5031 13.2616 18.4769C12.9672 16.6047 13.3165 15.1569 14.3 14.1734C14.8273 13.646 15.4808 13.2698 16.1981 13.0789L19.5782 13.703L20.573 18.677L18.0679 21.1821C17.8385 21.4115 17.7742 21.7585 17.9067 22.0548C20.184 27.1548 22.8556 29.8242 27.7638 31.9042C28.0577 32.0285 28.3973 31.9624 28.6229 31.7369L31.1279 29.2319L36.1018 30.2267L36.7259 33.6068C36.5352 34.3239 36.1588 34.9774 35.6316 35.5048C34.648 36.4882 33.1998 36.8376 31.328 36.5431C27.5857 35.9543 22.3947 34.1375 19.049 30.8051L19.0009 30.757C18.0922 29.8448 17.2462 28.7382 16.4863 27.4679C16.2645 27.0969 15.7837 26.976 15.4125 27.198C15.0414 27.4199 14.9206 27.9007 15.1426 28.2717C15.9679 29.6514 16.8927 30.8593 17.8944 31.8652L17.9428 31.9134C21.5549 35.5113 27.0998 37.463 31.0845 38.0898C32.6734 38.3398 34.3803 38.2226 35.7803 37.3669C36.1283 37.1543 36.4502 36.9002 36.7385 36.6119C37.5115 35.8389 38.0479 34.8678 38.2896 33.8035C38.313 33.6997 38.3152 33.5923 38.2958 33.4878Z" fill="black"/>
</g>
</g>
</g>
<defs>
<clipPath id="clip0_35_265">
<rect width="50" height="50" fill="white"/>
</clipPath>
</defs>
</svg>
