<svg width="153" height="87" viewBox="0 0 153 87" fill="none" xmlns="http://www.w3.org/2000/svg">
<path d="M78 18.9H148C150.761 18.9 153 21.1386 153 23.9V63.2C153 65.9615 150.761 68.2 148 68.2H78V18.9Z" fill="white"/>
<path d="M77.9286 18.8572H37.3571C34.5551 18.8572 32.2857 21.0627 32.2857 23.7857V41.0357H69.2716L55.9768 28.1155C54.9854 27.1519 54.9854 25.592 55.9768 24.631C56.9683 23.6674 58.5734 23.6674 59.5623 24.631L77.0562 41.632C77.5861 42.147 77.8119 42.8272 77.7764 43.5C77.8119 44.1727 77.5861 44.8529 77.0587 45.3655L59.5649 62.369C58.576 63.3325 56.9683 63.3325 55.9794 62.369C54.9879 61.4055 54.9879 59.8455 55.9794 58.8845L69.2716 45.9643H32.2857V63.2143C32.2857 65.9348 34.5551 68.1428 37.3571 68.1428H77.9286C80.7304 68.1428 83 65.9373 83 63.2143V23.7857C83 21.0627 80.7306 18.8572 77.9286 18.8572ZM14.5357 41.0357C13.136 41.0357 12 42.1397 12 43.5C12 44.8603 13.136 45.9643 14.5357 45.9643H32.2857V41.0357H14.5357Z" fill="white"/>
</svg>
